[x11grab @ 0x5627e9170000] Stream #0: not enough frames to estimate rate; consider increasing probesize
Input #0, x11grab, from ':99.0+0,0':
  Duration: N/A, start: 1783776746.524300, bitrate: 983520 kb/s
  Stream #0:0: Video: rawvideo (BGR[0] / 0x524742), bgr0, 1366x900, 983520 kb/s, 25 fps, 1000k tbr, 1000k tbn
Stream mapping:
  Stream #0:0 -> #0:0 (rawvideo (native) -> h264 (libx264))
Press [q] to stop, [?] for help
[libx264 @ 0x5627e9178d40] using cpu capabilities: MMX2 SSE2Fast SSSE3 SSE4.2 AVX FMA3 BMI2 AVX2 AVX512
[libx264 @ 0x5627e9178d40] profile High, level 3.2, 4:2:0, 8-bit
[libx264 @ 0x5627e9178d40] 264 - core 164 r3108 31e19f9 - H.264/MPEG-4 AVC codec - Copyleft 2003-2023 - http://www.videolan.org/x264.html - options: cabac=1 ref=1 deblock=1:0:0 analyse=0x3:0x113 me=hex subme=2 psy=1 psy_rd=1.00:0.00 mixed_ref=0 me_range=16 chroma_me=1 trellis=0 8x8dct=1 cqm=0 deadzone=21,11 fast_pskip=1 chroma_qp_offset=0 threads=3 lookahead_threads=1 sliced_threads=0 nr=0 decimate=1 interlaced=0 bluray_compat=0 constrained_intra=0 bframes=3 b_pyramid=2 b_adapt=1 b_bias=0 direct=1 weightb=1 open_gop=0 weightp=1 keyint=250 keyint_min=25 scenecut=40 intra_refresh=0 rc_lookahead=10 rc=crf mbtree=1 crf=23.0 qcomp=0.60 qpmin=0 qpmax=69 qpstep=4 ip_ratio=1.40 aq=1:1.00
Output #0, mp4, to '/home/runner/work/Auto_Browser/Auto_Browser/recordings/oncc/latest.mp4':
  Metadata:
    encoder         : Lavf60.16.100
  Stream #0:0: Video: h264 (avc1 / 0x31637661), yuv420p(tv, progressive), 1366x900, q=2-31, 25 fps, 12800 tbn
    Metadata:
      encoder         : Lavc60.31.102 libx264
    Side data:
      cpb: bitrate max/min/avg: 0/0/0 buffer size: 0 vbv_delay: N/A
frame=    0 fps=0.0 q=0.0 size=       0kB time=N/A bitrate=N/A speed=N/A    frame=    0 fps=0.0 q=0.0 size=       0kB time=N/A bitrate=N/A speed=N/A    frame=   12 fps= 11 q=28.0 size=       0kB time=00:00:00.36 bitrate=   1.1kbits/s speed=0.345x    frame=   24 fps= 15 q=28.0 size=       0kB time=00:00:00.88 bitrate=   0.4kbits/s speed=0.562x    frame=   37 fps= 18 q=28.0 size=       0kB time=00:00:01.40 bitrate=   0.3kbits/s speed=0.672x    frame=   50 fps= 19 q=28.0 size=       0kB time=00:00:01.92 bitrate=   0.2kbits/s speed=0.738x    frame=   63 fps= 20 q=28.0 size=       0kB time=00:00:02.44 bitrate=   0.2kbits/s speed=0.781x    frame=   77 fps= 21 q=28.0 size=     256kB time=00:00:02.96 bitrate= 708.6kbits/s speed=0.812x    frame=   89 fps= 21 q=28.0 size=     256kB time=00:00:03.48 bitrate= 602.7kbits/s speed=0.836x    frame=  102 fps= 22 q=28.0 size=     256kB time=00:00:04.00 bitrate= 524.4kbits/s speed=0.854x    frame=  115 fps= 22 q=28.0 size=     256kB time=00:00:04.52 bitrate= 464.1kbits/s speed=0.869x    frame=  128 fps= 22 q=28.0 size=     256kB time=00:00:05.04 bitrate= 416.2kbits/s speed=0.88x    frame=  142 fps= 23 q=28.0 size=     256kB time=00:00:05.56 bitrate= 377.3kbits/s speed=0.89x    frame=  155 fps= 23 q=28.0 size=     256kB time=00:00:06.08 bitrate= 345.0kbits/s speed=0.899x    frame=  168 fps= 23 q=28.0 size=     256kB time=00:00:06.60 bitrate= 317.8kbits/s speed=0.906x    frame=  180 fps= 23 q=28.0 size=     512kB time=00:00:07.12 bitrate= 589.1kbits/s speed=0.913x    frame=  194 fps= 23 q=28.0 size=     512kB time=00:00:07.64 bitrate= 549.0kbits/s speed=0.918x    frame=  206 fps= 23 q=28.0 size=     512kB time=00:00:08.16 bitrate= 514.1kbits/s speed=0.922x    frame=  219 fps= 23 q=28.0 size=     512kB time=00:00:08.68 bitrate= 483.3kbits/s speed=0.926x    frame=  232 fps= 23 q=28.0 size=     512kB time=00:00:09.20 bitrate= 455.9kbits/s speed=0.931x    frame=  246 fps= 24 q=28.0 size=     512kB time=00:00:09.72 bitrate= 431.6kbits/s speed=0.934x    frame=  258 fps= 24 q=28.0 size=     768kB time=00:00:10.24 bitrate= 614.4kbits/s speed=0.937x    frame=  271 fps= 24 q=28.0 size=     768kB time=00:00:10.76 bitrate= 584.7kbits/s speed=0.94x    frame=  284 fps= 24 q=28.0 size=     768kB time=00:00:11.28 bitrate= 557.8kbits/s speed=0.943x    frame=  297 fps= 24 q=28.0 size=    1024kB time=00:00:11.80 bitrate= 710.9kbits/s speed=0.945x    frame=  311 fps= 24 q=28.0 size=    1024kB time=00:00:12.32 bitrate= 680.9kbits/s speed=0.948x    frame=  323 fps= 24 q=28.0 size=    1280kB time=00:00:12.84 bitrate= 816.7kbits/s speed=0.949x    frame=  336 fps= 24 q=28.0 size=    1280kB time=00:00:13.36 bitrate= 784.9kbits/s speed=0.951x    frame=  349 fps= 24 q=28.0 size=    1536kB time=00:00:13.88 bitrate= 906.6kbits/s speed=0.953x    frame=  363 fps= 24 q=28.0 size=    1536kB time=00:00:14.40 bitrate= 873.8kbits/s speed=0.955x    frame=  375 fps= 24 q=28.0 size=    1536kB time=00:00:14.92 bitrate= 843.4kbits/s speed=0.956x    frame=  388 fps= 24 q=28.0 size=    1536kB time=00:00:15.44 bitrate= 815.0kbits/s speed=0.958x    frame=  401 fps= 24 q=28.0 size=    1792kB time=00:00:15.96 bitrate= 919.8kbits/s speed=0.959x    frame=  414 fps= 24 q=28.0 size=    1792kB time=00:00:16.48 bitrate= 890.8kbits/s speed=0.96x    frame=  428 fps= 24 q=28.0 size=    1792kB time=00:00:17.00 bitrate= 863.6kbits/s speed=0.961x    frame=  440 fps= 24 q=28.0 size=    1792kB time=00:00:17.52 bitrate= 837.9kbits/s speed=0.963x    frame=  453 fps= 24 q=28.0 size=    1792kB time=00:00:18.04 bitrate= 813.8kbits/s speed=0.963x    frame=  466 fps= 24 q=28.0 size=    1792kB time=00:00:18.56 bitrate= 791.0kbits/s speed=0.964x    frame=  480 fps= 24 q=28.0 size=    1792kB time=00:00:19.08 bitrate= 769.4kbits/s speed=0.965x    frame=  492 fps= 24 q=28.0 size=    2048kB time=00:00:19.60 bitrate= 856.0kbits/s speed=0.966x    frame=  505 fps= 24 q=28.0 size=    2048kB time=00:00:20.12 bitrate= 833.9kbits/s speed=0.967x    frame=  518 fps= 24 q=28.0 size=    2048kB time=00:00:20.64 bitrate= 812.9kbits/s speed=0.968x    frame=  532 fps= 24 q=28.0 size=    2048kB time=00:00:21.16 bitrate= 792.9kbits/s speed=0.969x    frame=  545 fps= 24 q=28.0 size=    2304kB time=00:00:21.68 bitrate= 870.6kbits/s speed=0.97x    frame=  558 fps= 24 q=28.0 size=    2304kB time=00:00:22.20 bitrate= 850.2kbits/s speed=0.97x    frame=  570 fps= 24 q=28.0 size=    2304kB time=00:00:22.72 bitrate= 830.8kbits/s speed=0.971x    frame=  583 fps= 24 q=28.0 size=    2304kB time=00:00:23.24 bitrate= 812.2kbits/s speed=0.971x    frame=  596 fps= 24 q=28.0 size=    2304kB time=00:00:23.76 bitrate= 794.4kbits/s speed=0.972x    frame=  609 fps= 24 q=28.0 size=    2304kB time=00:00:24.28 bitrate= 777.4kbits/s speed=0.972x    frame=  622 fps= 24 q=28.0 size=    2304kB time=00:00:24.80 bitrate= 761.1kbits/s speed=0.973x    frame=  635 fps= 24 q=28.0 size=    2560kB time=00:00:25.32 bitrate= 828.3kbits/s speed=0.974x    frame=  649 fps= 24 q=28.0 size=    2560kB time=00:00:25.84 bitrate= 811.6kbits/s speed=0.974x    frame=  661 fps= 24 q=28.0 size=    2560kB time=00:00:26.36 bitrate= 795.6kbits/s speed=0.975x    frame=  674 fps= 24 q=28.0 size=    2560kB time=00:00:26.88 bitrate= 780.2kbits/s speed=0.975x    frame=  687 fps= 24 q=28.0 size=    2560kB time=00:00:27.40 bitrate= 765.4kbits/s speed=0.976x    frame=  700 fps= 24 q=28.0 size=    2560kB time=00:00:27.92 bitrate= 751.1kbits/s speed=0.976x    frame=  714 fps= 25 q=28.0 size=    2560kB time=00:00:28.44 bitrate= 737.4kbits/s speed=0.977x    frame=  726 fps= 24 q=28.0 size=    2816kB time=00:00:28.96 bitrate= 796.6kbits/s speed=0.977x    frame=  740 fps= 25 q=28.0 size=    2816kB time=00:00:29.48 bitrate= 782.5kbits/s speed=0.977x    frame=  752 fps= 25 q=28.0 size=    2816kB time=00:00:30.00 bitrate= 769.0kbits/s speed=0.978x    frame=  765 fps= 25 q=28.0 size=    2816kB time=00:00:30.52 bitrate= 755.9kbits/s speed=0.978x    frame=  779 fps= 25 q=28.0 size=    3072kB time=00:00:31.04 bitrate= 810.8kbits/s speed=0.978x    frame=  791 fps= 25 q=28.0 size=    3072kB time=00:00:31.56 bitrate= 797.4kbits/s speed=0.979x    frame=  804 fps= 25 q=28.0 size=    3328kB time=00:00:32.08 bitrate= 849.9kbits/s speed=0.979x    frame=  817 fps= 25 q=28.0 size=    3328kB time=00:00:32.60 bitrate= 836.3kbits/s speed=0.98x    frame=  831 fps= 25 q=28.0 size=    3584kB time=00:00:33.12 bitrate= 886.5kbits/s speed=0.98x    frame=  843 fps= 25 q=28.0 size=    3584kB time=00:00:33.64 bitrate= 872.8kbits/s speed=0.98x    frame=  856 fps= 25 q=28.0 size=    3584kB time=00:00:34.16 bitrate= 859.5kbits/s speed=0.98x    frame=  869 fps= 25 q=28.0 size=    3584kB time=00:00:34.68 bitrate= 846.6kbits/s speed=0.981x    frame=  882 fps= 25 q=28.0 size=    3584kB time=00:00:35.20 bitrate= 834.1kbits/s speed=0.981x    frame=  895 fps= 25 q=28.0 size=    3584kB time=00:00:35.72 bitrate= 822.0kbits/s speed=0.981x    frame=  908 fps= 25 q=28.0 size=    3840kB time=00:00:36.24 bitrate= 868.0kbits/s speed=0.981x    frame=  922 fps= 25 q=28.0 size=    3840kB time=00:00:36.76 bitrate= 855.8kbits/s speed=0.982x    frame=  935 fps= 25 q=28.0 size=    3840kB time=00:00:37.28 bitrate= 843.8kbits/s speed=0.982x    frame=  948 fps= 25 q=28.0 size=    3840kB time=00:00:37.80 bitrate= 832.2kbits/s speed=0.982x    frame=  960 fps= 25 q=28.0 size=    3840kB time=00:00:38.32 bitrate= 820.9kbits/s speed=0.982x    frame=  973 fps= 25 q=28.0 size=    3840kB time=00:00:38.84 bitrate= 809.9kbits/s speed=0.983x    frame=  987 fps= 25 q=28.0 size=    3840kB time=00:00:39.36 bitrate= 799.2kbits/s speed=0.983x    frame= 1000 fps= 25 q=28.0 size=    4096kB time=00:00:39.88 bitrate= 841.4kbits/s speed=0.983x    frame= 1012 fps= 25 q=28.0 size=    4096kB time=00:00:40.40 bitrate= 830.6kbits/s speed=0.983x    frame= 1026 fps= 25 q=28.0 size=    4096kB time=00:00:40.92 bitrate= 820.0kbits/s speed=0.984x    frame= 1038 fps= 25 q=28.0 size=    4096kB time=00:00:41.44 bitrate= 809.7kbits/s speed=0.983x    frame= 1053 fps= 25 q=28.0 size=    4096kB time=00:00:42.00 bitrate= 798.9kbits/s speed=0.984x    frame= 1065 fps= 25 q=28.0 size=    4352kB time=00:00:42.52 bitrate= 838.5kbits/s speed=0.984x    frame= 1079 fps= 25 q=28.0 size=    4352kB time=00:00:43.04 bitrate= 828.3kbits/s speed=0.984x    frame= 1092 fps= 25 q=28.0 size=    4352kB time=00:00:43.56 bitrate= 818.5kbits/s speed=0.985x    frame= 1105 fps= 25 q=28.0 size=    4352kB time=00:00:44.08 bitrate= 808.8kbits/s speed=0.985x    frame= 1117 fps= 25 q=28.0 size=    4352kB time=00:00:44.60 bitrate= 799.4kbits/s speed=0.985x    frame= 1130 fps= 25 q=28.0 size=    4352kB time=00:00:45.12 bitrate= 790.2kbits/s speed=0.985x    frame= 1143 fps= 25 q=28.0 size=    4352kB time=00:00:45.64 bitrate= 781.2kbits/s speed=0.985x    frame= 1157 fps= 25 q=28.0 size=    4608kB time=00:00:46.16 bitrate= 817.8kbits/s speed=0.985x    frame= 1169 fps= 25 q=28.0 size=    4608kB time=00:00:46.68 bitrate= 808.7kbits/s speed=0.986x    frame= 1182 fps= 25 q=28.0 size=    4608kB time=00:00:47.20 bitrate= 799.8kbits/s speed=0.986x    frame= 1195 fps= 25 q=28.0 size=    4608kB time=00:00:47.72 bitrate= 791.1kbits/s speed=0.986x    frame= 1208 fps= 25 q=28.0 size=    4608kB time=00:00:48.24 bitrate= 782.5kbits/s speed=0.986x    frame= 1221 fps= 25 q=28.0 size=    4608kB time=00:00:48.76 bitrate= 774.2kbits/s speed=0.986x    frame= 1235 fps= 25 q=28.0 size=    4608kB time=00:00:49.28 bitrate= 766.0kbits/s speed=0.986x    frame= 1247 fps= 25 q=28.0 size=    4864kB time=00:00:49.80 bitrate= 800.1kbits/s speed=0.986x    frame= 1261 fps= 25 q=28.0 size=    4864kB time=00:00:50.32 bitrate= 791.9kbits/s speed=0.987x    frame= 1274 fps= 25 q=28.0 size=    5120kB time=00:00:50.84 bitrate= 825.0kbits/s speed=0.987x    frame= 1287 fps= 25 q=28.0 size=    5120kB time=00:00:51.36 bitrate= 816.7kbits/s speed=0.987x    frame= 1299 fps= 25 q=28.0 size=    5376kB time=00:00:51.88 bitrate= 848.9kbits/s speed=0.987x    frame= 1312 fps= 25 q=28.0 size=    5376kB time=00:00:52.40 bitrate= 840.5kbits/s speed=0.987x    frame= 1326 fps= 25 q=28.0 size=    5632kB time=00:00:52.92 bitrate= 871.8kbits/s speed=0.987x    frame= 1338 fps= 25 q=28.0 size=    5632kB time=00:00:53.44 bitrate= 863.4kbits/s speed=0.987x    frame= 1352 fps= 25 q=28.0 size=    5632kB time=00:00:53.96 bitrate= 855.0kbits/s speed=0.987x    frame= 1364 fps= 25 q=28.0 size=    5632kB time=00:00:54.48 bitrate= 846.9kbits/s speed=0.988x    frame= 1377 fps= 25 q=28.0 size=    5632kB time=00:00:55.00 bitrate= 838.9kbits/s speed=0.988x    frame= 1391 fps= 25 q=28.0 size=    5632kB time=00:00:55.52 bitrate= 831.0kbits/s speed=0.988x    frame= 1403 fps= 25 q=28.0 size=    5632kB time=00:00:56.04 bitrate= 823.3kbits/s speed=0.988x    frame= 1416 fps= 25 q=28.0 size=    5632kB time=00:00:56.56 bitrate= 815.7kbits/s speed=0.988x    frame= 1429 fps= 25 q=28.0 size=    5888kB time=00:00:57.08 bitrate= 845.0kbits/s speed=0.988x    frame= 1443 fps= 25 q=28.0 size=    5888kB time=00:00:57.60 bitrate= 837.4kbits/s speed=0.988x    frame= 1455 fps= 25 q=28.0 size=    5888kB time=00:00:58.12 bitrate= 829.9kbits/s speed=0.988x    frame= 1469 fps= 25 q=28.0 size=    5888kB time=00:00:58.64 bitrate= 822.6kbits/s speed=0.988x    frame= 1482 fps= 25 q=28.0 size=    5888kB time=00:00:59.16 bitrate= 815.3kbits/s speed=0.989x    frame= 1494 fps= 25 q=28.0 size=    5888kB time=00:00:59.68 bitrate= 808.2kbits/s speed=0.989x    frame= 1507 fps= 25 q=28.0 size=    6144kB time=00:01:00.20 bitrate= 836.1kbits/s speed=0.989x    frame= 1520 fps= 25 q=28.0 size=    6144kB time=00:01:00.72 bitrate= 828.9kbits/s speed=0.989x    frame= 1533 fps= 25 q=28.0 size=    6144kB time=00:01:01.24 bitrate= 821.9kbits/s speed=0.989x    frame= 1547 fps= 25 q=28.0 size=    6144kB time=00:01:01.76 bitrate= 815.0kbits/s speed=0.989x    frame= 1559 fps= 25 q=28.0 size=    6144kB time=00:01:02.28 bitrate= 808.2kbits/s speed=0.989x    frame= 1573 fps= 25 q=28.0 size=    6400kB time=00:01:02.80 bitrate= 834.9kbits/s speed=0.989x    frame= 1585 fps= 25 q=28.0 size=    6400kB time=00:01:03.32 bitrate= 828.0kbits/s speed=0.989x    frame= 1599 fps= 25 q=28.0 size=    6400kB time=00:01:03.84 bitrate= 821.3kbits/s speed=0.989x    frame= 1611 fps= 25 q=28.0 size=    6400kB time=00:01:04.36 bitrate= 814.6kbits/s speed=0.989x    frame= 1625 fps= 25 q=28.0 size=    6400kB time=00:01:04.88 bitrate= 808.1kbits/s speed=0.99x    frame= 1637 fps= 25 q=28.0 size=    6400kB time=00:01:05.40 bitrate= 801.7kbits/s speed=0.99x    frame= 1650 fps= 25 q=28.0 size=    6400kB time=00:01:05.92 bitrate= 795.3kbits/s speed=0.99x    frame= 1663 fps= 25 q=28.0 size=    6656kB time=00:01:06.44 bitrate= 820.7kbits/s speed=0.99x    frame= 1676 fps= 25 q=28.0 size=    6656kB time=00:01:06.96 bitrate= 814.3kbits/s speed=0.99x    frame= 1690 fps= 25 q=28.0 size=    6656kB time=00:01:07.48 bitrate= 808.0kbits/s speed=0.99x    frame= 1702 fps= 25 q=28.0 size=    6656kB time=00:01:08.00 bitrate= 801.9kbits/s speed=0.99x    frame= 1716 fps= 25 q=28.0 size=    6656kB time=00:01:08.52 bitrate= 795.8kbits/s speed=0.99x    frame= 1728 fps= 25 q=28.0 size=    6656kB time=00:01:09.04 bitrate= 789.8kbits/s speed=0.99x    frame= 1741 fps= 25 q=28.0 size=    6912kB time=00:01:09.56 bitrate= 814.0kbits/s speed=0.99x    frame= 1755 fps= 25 q=28.0 size=    6912kB time=00:01:10.08 bitrate= 808.0kbits/s speed=0.99x    frame= 1767 fps= 25 q=28.0 size=    6912kB time=00:01:10.60 bitrate= 802.0kbits/s speed=0.99x    frame= 1780 fps= 25 q=28.0 size=    7168kB time=00:01:11.12 bitrate= 825.7kbits/s speed=0.99x    frame= 1793 fps= 25 q=28.0 size=    7168kB time=00:01:11.64 bitrate= 819.7kbits/s speed=0.991x    frame= 1807 fps= 25 q=28.0 size=    7424kB time=00:01:12.16 bitrate= 842.8kbits/s speed=0.991x    frame= 1819 fps= 25 q=28.0 size=    7424kB time=00:01:12.68 bitrate= 836.8kbits/s speed=0.991x    frame= 1832 fps= 25 q=28.0 size=    7424kB time=00:01:13.20 bitrate= 830.8kbits/s speed=0.991x    frame= 1845 fps= 25 q=28.0 size=    7424kB time=00:01:13.72 bitrate= 825.0kbits/s speed=0.991x    frame= 1859 fps= 25 q=28.0 size=    7424kB time=00:01:14.24 bitrate= 819.2kbits/s speed=0.991x    frame= 1872 fps= 25 q=28.0 size=    7424kB time=00:01:14.76 bitrate= 813.5kbits/s speed=0.991x    frame= 1884 fps= 25 q=28.0 size=    7424kB time=00:01:15.28 bitrate= 807.9kbits/s speed=0.991x    frame= 1897 fps= 25 q=28.0 size=    7680kB time=00:01:15.80 bitrate= 830.0kbits/s speed=0.991x    frame= 1910 fps= 25 q=28.0 size=    7680kB time=00:01:16.32 bitrate= 824.4kbits/s speed=0.991x    frame= 1923 fps= 25 q=28.0 size=    7680kB time=00:01:16.84 bitrate= 818.8kbits/s speed=0.991x    frame= 1936 fps= 25 q=28.0 size=    7680kB time=00:01:17.36 bitrate= 813.3kbits/s speed=0.991x    frame= 1949 fps= 25 q=28.0 size=    7680kB time=00:01:17.88 bitrate= 807.8kbits/s speed=0.991x    frame= 1963 fps= 25 q=28.0 size=    7680kB time=00:01:18.40 bitrate= 802.5kbits/s speed=0.991x    frame= 1976 fps= 25 q=28.0 size=    7680kB time=00:01:18.92 bitrate= 797.2kbits/s speed=0.991x    frame= 1989 fps= 25 q=28.0 size=    7680kB time=00:01:19.44 bitrate= 792.0kbits/s speed=0.991x    frame= 2001 fps= 25 q=28.0 size=    7936kB time=00:01:19.96 bitrate= 813.1kbits/s speed=0.992x    frame= 2014 fps= 25 q=28.0 size=    7936kB time=00:01:20.48 bitrate= 807.8kbits/s speed=0.992x    frame= 2027 fps= 25 q=28.0 size=    7936kB time=00:01:21.00 bitrate= 802.6kbits/s speed=0.992x    frame= 2040 fps= 25 q=28.0 size=    7936kB time=00:01:21.52 bitrate= 797.5kbits/s speed=0.992x    frame= 2054 fps= 25 q=28.0 size=    8192kB time=00:01:22.04 bitrate= 818.0kbits/s speed=0.992x    frame= 2066 fps= 25 q=28.0 size=    8192kB time=00:01:22.56 bitrate= 812.9kbits/s speed=0.992x    frame= 2080 fps= 25 q=28.0 size=    8192kB time=00:01:23.08 bitrate= 807.8kbits/s speed=0.992x    frame= 2092 fps= 25 q=28.0 size=    8192kB time=00:01:23.60 bitrate= 802.7kbits/s speed=0.992x    frame= 2105 fps= 25 q=28.0 size=    8192kB time=00:01:24.12 bitrate= 797.8kbits/s speed=0.992x    frame= 2119 fps= 25 q=28.0 size=    8192kB time=00:01:24.64 bitrate= 792.9kbits/s speed=0.992x    frame= 2132 fps= 25 q=28.0 size=    8192kB time=00:01:25.16 bitrate= 788.0kbits/s speed=0.992x    frame= 2144 fps= 25 q=28.0 size=    8192kB time=00:01:25.68 bitrate= 783.3kbits/s speed=0.992x    frame= 2157 fps= 25 q=28.0 size=    8448kB time=00:01:26.20 bitrate= 802.9kbits/s speed=0.992x    frame= 2171 fps= 25 q=28.0 size=    8448kB time=00:01:26.72 bitrate= 798.0kbits/s speed=0.992x    frame= 2183 fps= 25 q=28.0 size=    8448kB time=00:01:27.24 bitrate= 793.3kbits/s speed=0.992x    frame= 2196 fps= 25 q=28.0 size=    8448kB time=00:01:27.76 bitrate= 788.6kbits/s speed=0.992x    frame= 2209 fps= 25 q=28.0 size=    8448kB time=00:01:28.28 bitrate= 783.9kbits/s speed=0.992x    frame= 2223 fps= 25 q=28.0 size=    8448kB time=00:01:28.80 bitrate= 779.4kbits/s speed=0.992x    frame= 2236 fps= 25 q=28.0 size=    8704kB time=00:01:29.32 bitrate= 798.3kbits/s speed=0.992x    frame= 2249 fps= 25 q=25.0 size=    8704kB time=00:01:29.84 bitrate= 793.7kbits/s speed=0.992x    frame= 2262 fps= 25 q=28.0 size=    8960kB time=00:01:30.36 bitrate= 812.3kbits/s speed=0.992x    frame= 2274 fps= 25 q=28.0 size=    8960kB time=00:01:30.88 bitrate= 807.7kbits/s speed=0.993x    frame= 2288 fps= 25 q=28.0 size=    8960kB time=00:01:31.40 bitrate= 803.1kbits/s speed=0.993x    frame= 2300 fps= 25 q=28.0 size=    8960kB time=00:01:31.92 bitrate= 798.5kbits/s speed=0.993x    frame= 2313 fps= 25 q=28.0 size=    8960kB time=00:01:32.44 bitrate= 794.0kbits/s speed=0.993x    frame= 2327 fps= 25 q=28.0 size=    9216kB time=00:01:32.96 bitrate= 812.2kbits/s speed=0.993x    frame= 2339 fps= 25 q=28.0 size=    9216kB time=00:01:33.48 bitrate= 807.6kbits/s speed=0.993x    frame= 2353 fps= 25 q=28.0 size=    9216kB time=00:01:34.00 bitrate= 803.2kbits/s speed=0.993x    frame= 2365 fps= 25 q=28.0 size=    9216kB time=00:01:34.52 bitrate= 798.8kbits/s speed=0.993x    frame= 2378 fps= 25 q=28.0 size=    9216kB time=00:01:35.04 bitrate= 794.4kbits/s speed=0.993x    frame= 2392 fps= 25 q=28.0 size=    9216kB time=00:01:35.56 bitrate= 790.1kbits/s speed=0.993x    frame= 2404 fps= 25 q=28.0 size=    9216kB time=00:01:36.08 bitrate= 785.8kbits/s speed=0.993x    frame= 2417 fps= 25 q=28.0 size=    9216kB time=00:01:36.60 bitrate= 781.6kbits/s speed=0.993x    frame= 2430 fps= 25 q=28.0 size=    9216kB time=00:01:37.12 bitrate= 777.4kbits/s speed=0.993x    frame= 2443 fps= 25 q=28.0 size=    9472kB time=00:01:37.64 bitrate= 794.7kbits/s speed=0.993x    frame= 2456 fps= 25 q=28.0 size=    9472kB time=00:01:38.16 bitrate= 790.5kbits/s speed=0.993x    frame= 2469 fps= 25 q=28.0 size=    9472kB time=00:01:38.68 bitrate= 786.3kbits/s speed=0.993x    frame= 2482 fps= 25 q=28.0 size=    9472kB time=00:01:39.20 bitrate= 782.2kbits/s speed=0.993x    frame= 2496 fps= 25 q=28.0 size=    9472kB time=00:01:39.72 bitrate= 778.1kbits/s speed=0.993x    frame= 2509 fps= 25 q=28.0 size=    9728kB time=00:01:40.24 bitrate= 795.0kbits/s speed=0.993x    frame= 2522 fps= 25 q=28.0 size=    9728kB time=00:01:40.76 bitrate= 790.9kbits/s speed=0.993x    frame= 2535 fps= 25 q=28.0 size=    9728kB time=00:01:41.28 bitrate= 786.8kbits/s speed=0.993x    frame= 2547 fps= 25 q=28.0 size=    9728kB time=00:01:41.80 bitrate= 782.8kbits/s speed=0.993x    frame= 2561 fps= 25 q=28.0 size=    9728kB time=00:01:42.32 bitrate= 778.9kbits/s speed=0.993x    frame= 2573 fps= 25 q=28.0 size=    9728kB time=00:01:42.84 bitrate= 774.9kbits/s speed=0.993x    frame= 2586 fps= 25 q=28.0 size=    9728kB time=00:01:43.36 bitrate= 771.0kbits/s speed=0.993x    frame= 2600 fps= 25 q=28.0 size=    9984kB time=00:01:43.88 bitrate= 787.3kbits/s speed=0.993x    frame= 2613 fps= 25 q=28.0 size=    9984kB time=00:01:44.40 bitrate= 783.4kbits/s speed=0.993x    frame= 2625 fps= 25 q=28.0 size=    9984kB time=00:01:44.92 bitrate= 779.5kbits/s speed=0.994x    frame= 2639 fps= 25 q=28.0 size=    9984kB time=00:01:45.44 bitrate= 775.7kbits/s speed=0.994x    frame= 2651 fps= 25 q=28.0 size=    9984kB time=00:01:45.96 bitrate= 771.9kbits/s speed=0.994x    frame= 2664 fps= 25 q=28.0 size=    9984kB time=00:01:46.48 bitrate= 768.1kbits/s speed=0.994x    frame= 2677 fps= 25 q=28.0 size=    9984kB time=00:01:47.00 bitrate= 764.4kbits/s speed=0.994x    frame= 2691 fps= 25 q=28.0 size=   10240kB time=00:01:47.52 bitrate= 780.2kbits/s speed=0.994x    frame= 2703 fps= 25 q=28.0 size=   10240kB time=00:01:48.04 bitrate= 776.4kbits/s speed=0.994x    frame= 2716 fps= 25 q=28.0 size=   10240kB time=00:01:48.56 bitrate= 772.7kbits/s speed=0.994x    frame= 2729 fps= 25 q=28.0 size=   10240kB time=00:01:49.08 bitrate= 769.0kbits/s speed=0.994x    frame= 2743 fps= 25 q=28.0 size=   10496kB time=00:01:49.60 bitrate= 784.5kbits/s speed=0.994x    frame= 2756 fps= 25 q=28.0 size=   10752kB time=00:01:50.12 bitrate= 799.9kbits/s speed=0.994x    frame= 2768 fps= 25 q=28.0 size=   10752kB time=00:01:50.64 bitrate= 796.1kbits/s speed=0.994x    frame= 2781 fps= 25 q=28.0 size=   10752kB time=00:01:51.16 bitrate= 792.4kbits/s speed=0.994x    frame= 2794 fps= 25 q=28.0 size=   10752kB time=00:01:51.68 bitrate= 788.7kbits/s speed=0.994x    frame= 2808 fps= 25 q=28.0 size=   10752kB time=00:01:52.20 bitrate= 785.0kbits/s speed=0.994x    frame= 2821 fps= 25 q=28.0 size=   10752kB time=00:01:52.72 bitrate= 781.4kbits/s speed=0.994x    frame= 2834 fps= 25 q=28.0 size=   11008kB time=00:01:53.24 bitrate= 796.3kbits/s speed=0.994x    frame= 2847 fps= 25 q=28.0 size=   11008kB time=00:01:53.76 bitrate= 792.7kbits/s speed=0.994x    frame= 2859 fps= 25 q=28.0 size=   11008kB time=00:01:54.28 bitrate= 789.1kbits/s speed=0.994x    frame= 2873 fps= 25 q=28.0 size=   11008kB time=00:01:54.80 bitrate= 785.5kbits/s speed=0.994x    frame= 2886 fps= 25 q=28.0 size=   11008kB time=00:01:55.32 bitrate= 782.0kbits/s speed=0.994x    frame= 2898 fps= 25 q=28.0 size=   11008kB time=00:01:55.84 bitrate= 778.5kbits/s speed=0.994x    frame= 2911 fps= 25 q=28.0 size=   11008kB time=00:01:56.36 bitrate= 775.0kbits/s speed=0.994x    frame= 2924 fps= 25 q=28.0 size=   11008kB time=00:01:56.88 bitrate= 771.5kbits/s speed=0.994x    frame= 2937 fps= 25 q=28.0 size=   11008kB time=00:01:57.40 bitrate= 768.1kbits/s speed=0.994x    frame= 2951 fps= 25 q=28.0 size=   11264kB time=00:01:57.92 bitrate= 782.5kbits/s speed=0.994x    frame= 2964 fps= 25 q=28.0 size=   11264kB time=00:01:58.44 bitrate= 779.1kbits/s speed=0.994x    frame= 2976 fps= 25 q=28.0 size=   11264kB time=00:01:58.96 bitrate= 775.7kbits/s speed=0.994x    frame= 2989 fps= 25 q=28.0 size=   11264kB time=00:01:59.48 bitrate= 772.3kbits/s speed=0.994x    frame= 3002 fps= 25 q=28.0 size=   11264kB time=00:02:00.00 bitrate= 769.0kbits/s speed=0.994x    frame= 3016 fps= 25 q=28.0 size=   11520kB time=00:02:00.52 bitrate= 783.0kbits/s speed=0.994x    frame= 3029 fps= 25 q=28.0 size=   11520kB time=00:02:01.04 bitrate= 779.7kbits/s speed=0.994x    frame= 3041 fps= 25 q=28.0 size=   11520kB time=00:02:01.56 bitrate= 776.3kbits/s speed=0.994x    frame= 3054 fps= 25 q=28.0 size=   11520kB time=00:02:02.08 bitrate= 773.0kbits/s speed=0.994x    frame= 3068 fps= 25 q=28.0 size=   11520kB time=00:02:02.60 bitrate= 769.8kbits/s speed=0.994x    frame= 3081 fps= 25 q=28.0 size=   11520kB time=00:02:03.12 bitrate= 766.5kbits/s speed=0.994x    frame= 3093 fps= 25 q=28.0 size=   11520kB time=00:02:03.64 bitrate= 763.3kbits/s speed=0.995x    frame= 3107 fps= 25 q=28.0 size=   11520kB time=00:02:04.16 bitrate= 760.1kbits/s speed=0.995x    frame= 3120 fps= 25 q=28.0 size=   11776kB time=00:02:04.68 bitrate= 773.7kbits/s speed=0.995x    frame= 3133 fps= 25 q=28.0 size=   11776kB time=00:02:05.20 bitrate= 770.5kbits/s speed=0.995x    frame= 3146 fps= 25 q=28.0 size=   11776kB time=00:02:05.72 bitrate= 767.3kbits/s speed=0.995x    frame= 3158 fps= 25 q=28.0 size=   11776kB time=00:02:06.24 bitrate= 764.2kbits/s speed=0.995x    frame= 3171 fps= 25 q=28.0 size=   11776kB time=00:02:06.76 bitrate= 761.0kbits/s speed=0.995x    frame= 3184 fps= 25 q=28.0 size=   11776kB time=00:02:07.28 bitrate= 757.9kbits/s speed=0.995x    frame= 3198 fps= 25 q=28.0 size=   11776kB time=00:02:07.80 bitrate= 754.8kbits/s speed=0.995x    frame= 3211 fps= 25 q=28.0 size=   11776kB time=00:02:08.32 bitrate= 751.8kbits/s speed=0.995x    frame= 3223 fps= 25 q=28.0 size=   11776kB time=00:02:08.84 bitrate= 748.8kbits/s speed=0.995x    frame= 3237 fps= 25 q=28.0 size=   12032kB time=00:02:09.36 bitrate= 762.0kbits/s speed=0.995x    frame= 3250 fps= 25 q=28.0 size=   12032kB time=00:02:09.88 bitrate= 758.9kbits/s speed=0.995x    frame= 3262 fps= 25 q=28.0 size=   12288kB time=00:02:10.40 bitrate= 772.0kbits/s speed=0.995x    frame= 3276 fps= 25 q=28.0 size=   12288kB time=00:02:10.92 bitrate= 768.9kbits/s speed=0.995x    frame= 3289 fps= 25 q=28.0 size=   12288kB time=00:02:11.44 bitrate= 765.9kbits/s speed=0.995x    frame= 3301 fps= 25 q=28.0 size=   12544kB time=00:02:11.96 bitrate= 778.7kbits/s speed=0.995x    frame= 3315 fps= 25 q=28.0 size=   12544kB time=00:02:12.48 bitrate= 775.7kbits/s speed=0.995x    frame= 3327 fps= 25 q=28.0 size=   12544kB time=00:02:13.00 bitrate= 772.6kbits/s speed=0.995x    frame= 3341 fps= 25 q=28.0 size=   12544kB time=00:02:13.52 bitrate= 769.6kbits/s speed=0.995x    frame= 3354 fps= 25 q=28.0 size=   12544kB time=00:02:14.04 bitrate= 766.6kbits/s speed=0.995x    frame= 3367 fps= 25 q=28.0 size=   12544kB time=00:02:14.56 bitrate= 763.7kbits/s speed=0.995x    frame= 3379 fps= 25 q=28.0 size=   12800kB time=00:02:15.08 bitrate= 776.3kbits/s speed=0.995x    frame= 3392 fps= 25 q=28.0 size=   12800kB time=00:02:15.60 bitrate= 773.3kbits/s speed=0.995x    frame= 3405 fps= 25 q=28.0 size=   12800kB time=00:02:16.12 bitrate= 770.3kbits/s speed=0.995x    frame= 3419 fps= 25 q=28.0 size=   12800kB time=00:02:16.64 bitrate= 767.4kbits/s speed=0.995x    frame= 3431 fps= 25 q=28.0 size=   12800kB time=00:02:17.16 bitrate= 764.5kbits/s speed=0.995x    frame= 3445 fps= 25 q=28.0 size=   12800kB time=00:02:17.68 bitrate= 761.6kbits/s speed=0.995x    frame= 3457 fps= 25 q=28.0 size=   12800kB time=00:02:18.20 bitrate= 758.7kbits/s speed=0.995x    frame= 3471 fps= 25 q=28.0 size=   12800kB time=00:02:18.72 bitrate= 755.9kbits/s speed=0.995x    frame= 3483 fps= 25 q=28.0 size=   12800kB time=00:02:19.24 bitrate= 753.1kbits/s speed=0.995x    frame= 3496 fps= 25 q=28.0 size=   12800kB time=00:02:19.76 bitrate= 750.3kbits/s speed=0.995x    frame= 3510 fps= 25 q=28.0 size=   13056kB time=00:02:20.28 bitrate= 762.4kbits/s speed=0.995x    frame= 3522 fps= 25 q=28.0 size=   13056kB time=00:02:20.80 bitrate= 759.6kbits/s speed=0.995x    frame= 3536 fps= 25 q=28.0 size=   13056kB time=00:02:21.32 bitrate= 756.8kbits/s speed=0.995x    frame= 3548 fps= 25 q=28.0 size=   13056kB time=00:02:21.84 bitrate= 754.1kbits/s speed=0.995x    frame= 3562 fps= 25 q=28.0 size=   13056kB time=00:02:22.36 bitrate= 751.3kbits/s speed=0.995x    frame= 3574 fps= 25 q=28.0 size=   13056kB time=00:02:22.88 bitrate= 748.6kbits/s speed=0.995x    frame= 3587 fps= 25 q=28.0 size=   13056kB time=00:02:23.40 bitrate= 745.9kbits/s speed=0.995x    frame= 3601 fps= 25 q=28.0 size=   13056kB time=00:02:23.92 bitrate= 743.2kbits/s speed=0.995x    frame= 3613 fps= 25 q=28.0 size=   13056kB time=00:02:24.44 bitrate= 740.5kbits/s speed=0.995x    frame= 3626 fps= 25 q=28.0 size=   13056kB time=00:02:24.96 bitrate= 737.8kbits/s speed=0.995x    frame= 3640 fps= 25 q=28.0 size=   13056kB time=00:02:25.48 bitrate= 735.2kbits/s speed=0.995x    frame= 3653 fps= 25 q=28.0 size=   13056kB time=00:02:26.00 bitrate= 732.6kbits/s speed=0.995x    frame= 3665 fps= 25 q=28.0 size=   13056kB time=00:02:26.52 bitrate= 730.0kbits/s speed=0.995x    frame= 3678 fps= 25 q=28.0 size=   13056kB time=00:02:27.04 bitrate= 727.4kbits/s speed=0.995x    frame= 3691 fps= 25 q=28.0 size=   13056kB time=00:02:27.56 bitrate= 724.8kbits/s speed=0.995x    frame= 3705 fps= 25 q=28.0 size=   13056kB time=00:02:28.08 bitrate= 722.3kbits/s speed=0.995x    frame= 3718 fps= 25 q=28.0 size=   13056kB time=00:02:28.60 bitrate= 719.8kbits/s speed=0.995x    frame= 3731 fps= 25 q=28.0 size=   13056kB time=00:02:29.12 bitrate= 717.2kbits/s speed=0.995x    frame= 3743 fps= 25 q=28.0 size=   13056kB time=00:02:29.64 bitrate= 714.7kbits/s speed=0.995x    frame= 3756 fps= 25 q=28.0 size=   13056kB time=00:02:30.16 bitrate= 712.3kbits/s speed=0.995x    frame= 3770 fps= 25 q=28.0 size=   13056kB time=00:02:30.68 bitrate= 709.8kbits/s speed=0.995x    frame= 3783 fps= 25 q=28.0 size=   13312kB time=00:02:31.20 bitrate= 721.2kbits/s speed=0.996x    frame= 3795 fps= 25 q=28.0 size=   13312kB time=00:02:31.72 bitrate= 718.8kbits/s speed=0.995x    frame= 3808 fps= 25 q=28.0 size=   13312kB time=00:02:32.20 bitrate= 716.5kbits/s speed=0.995x    [mp4 @ 0x5627e9178200] Starting second pass: moving the moov atom to the beginning of the file
[out#0/mp4 @ 0x5627e9177580] video:13401kB audio:0kB subtitle:0kB other streams:0kB global headers:0kB muxing overhead: 0.338675%
frame= 3825 fps= 25 q=-1.0 Lsize=   13446kB time=00:02:32.88 bitrate= 720.5kbits/s speed=0.999x    
[libx264 @ 0x5627e9178d40] frame I:16    Avg QP:16.54  size: 95765
[libx264 @ 0x5627e9178d40] frame P:987   Avg QP:21.92  size:  7207
[libx264 @ 0x5627e9178d40] frame B:2822  Avg QP:28.09  size:  1799
[libx264 @ 0x5627e9178d40] consecutive B-frames:  0.6%  1.4%  4.8% 93.2%
[libx264 @ 0x5627e9178d40] mb I  I16..4: 39.2% 18.8% 41.9%
[libx264 @ 0x5627e9178d40] mb P  I16..4:  1.5%  1.9%  1.2%  P16..4:  5.9%  2.6%  1.4%  0.0%  0.0%    skip:85.5%
[libx264 @ 0x5627e9178d40] mb B  I16..4:  0.3%  0.7%  0.3%  B16..8:  1.8%  0.7%  0.2%  direct: 0.7%  skip:95.4%  L0:40.7% L1:43.5% BI:15.7%
[libx264 @ 0x5627e9178d40] 8x8 transform intra:42.8% inter:20.9%
[libx264 @ 0x5627e9178d40] coded y,uvDC,uvAC intra: 62.4% 72.5% 50.3% inter: 1.4% 1.8% 0.4%
[libx264 @ 0x5627e9178d40] i16 v,h,dc,p: 43% 40%  7% 10%
[libx264 @ 0x5627e9178d40] i8 v,h,dc,ddl,ddr,vr,hd,vl,hu: 20% 23% 13%  6%  7%  8%  8%  7%  9%
[libx264 @ 0x5627e9178d40] i4 v,h,dc,ddl,ddr,vr,hd,vl,hu: 23% 24% 12%  6%  8%  7%  7%  7%  6%
[libx264 @ 0x5627e9178d40] i8c dc,h,v,p: 36% 29% 21% 14%
[libx264 @ 0x5627e9178d40] Weighted P-Frames: Y:0.0% UV:0.0%
[libx264 @ 0x5627e9178d40] kb/s:717.49
